<?xml version="1.0" encoding="UTF-8" standalone="no"?>
<!-- Created with Inkscape (http://www.inkscape.org/) -->

<svg
   width="65mm"
   height="65mm"
   viewBox="0 0 65.000002 64.999999"
   version="1.1"
   id="svg1"
   inkscape:version="1.4.2 (f4327f4, 2025-05-13)"
   sodipodi:docname="celerity.svg"
   xmlns:inkscape="http://www.inkscape.org/namespaces/inkscape"
   xmlns:sodipodi="http://sodipodi.sourceforge.net/DTD/sodipodi-0.dtd"
   xmlns="http://www.w3.org/2000/svg"
   xmlns:svg="http://www.w3.org/2000/svg">
  <sodipodi:namedview
     id="namedview1"
     pagecolor="#ffffff"
     bordercolor="#666666"
     borderopacity="1.0"
     inkscape:showpageshadow="2"
     inkscape:pageopacity="0.0"
     inkscape:pagecheckerboard="0"
     inkscape:deskcolor="#d1d1d1"
     inkscape:document-units="mm"
     inkscape:zoom="0.37282197"
     inkscape:cx="207.87402"
     inkscape:cy="674.58471"
     inkscape:window-width="1920"
     inkscape:window-height="1017"
     inkscape:window-x="-8"
     inkscape:window-y="-8"
     inkscape:window-maximized="1"
     inkscape:current-layer="layer1" />
  <defs
     id="defs1" />
  <g
     inkscape:label="Calque 1"
     inkscape:groupmode="layer"
     id="layer1"
     transform="translate(-32.232395,-25.439088)">
    <path
       d="M 48.442458,74.181161 32.232395,57.94468 48.502896,41.691884 64.773401,25.439088 81.002899,41.724726 97.232395,58.010365 81.01078,74.235436 c -8.921883,8.923793 -16.25236,16.215429 -16.289936,16.203638 -0.0376,-0.0118 -7.362847,-7.327853 -16.278386,-16.257913 z M 78.052303,71.199358 91.320865,57.945073 78.052303,44.690789 64.783733,31.436502 51.481765,44.723193 38.179801,58.009885 51.415921,71.231764 c 7.279865,7.272032 13.265751,13.221878 13.301969,13.221878 0.03622,0 6.036702,-5.964426 13.334413,-13.254284 z M 64.71789,80.555013 c 0,-0.07245 -5.055347,-5.20402 -11.234099,-11.403482 L 42.249693,57.879781 53.483791,46.649645 64.71789,35.419509 75.993119,46.682193 87.268345,57.944876 76.341175,68.881393 c -6.00994,6.015084 -11.083797,11.132002 -11.27523,11.370933 -0.191432,0.23893 -0.348055,0.375139 -0.348055,0.302687 z M 58.068338,69.338535 c 1.573923,-1.63376 5.94671,-6.917838 9.212419,-11.132294 2.103045,-2.714022 4.115546,-5.313452 4.409385,-5.695356 l 0.239681,-0.311511 h -3.87006 -3.870062 l 1.149998,-1.40378 c 0.6325,-0.772078 2.080902,-2.564534 3.218676,-3.983235 1.137774,-1.418702 2.121583,-2.612118 2.186241,-2.652035 0.43637,-0.269391 -0.176694,-0.319647 -3.51018,-0.287751 l -3.627748,0.03471 -0.829147,1.24055 c -0.456031,0.682301 -2.3708,3.591061 -4.25504,6.463911 l -3.425892,5.223363 3.699528,0.03465 3.699522,0.03465 -0.698874,1.401775 c -2.186438,4.385487 -5.339728,12.174963 -4.928595,12.174963 0.05466,0 0.594728,-0.514173 1.200148,-1.14261 z"
       style="fill:#922426;fill-opacity:1;stroke-width:0.493821"
       id="path1" />
  </g>
</svg>
