<?xml version="1.0" encoding="UTF-8" standalone="no"?>
<!-- Created with Inkscape (http://www.inkscape.org/) -->

<svg
   width="65mm"
   height="65.000008mm"
   viewBox="0 0 65.000001 65.000008"
   version="1.1"
   id="svg1"
   inkscape:version="1.4.2 (f4327f4, 2025-05-13)"
   sodipodi:docname="potence.svg"
   xmlns:inkscape="http://www.inkscape.org/namespaces/inkscape"
   xmlns:sodipodi="http://sodipodi.sourceforge.net/DTD/sodipodi-0.dtd"
   xmlns="http://www.w3.org/2000/svg"
   xmlns:svg="http://www.w3.org/2000/svg">
  <sodipodi:namedview
     id="namedview1"
     pagecolor="#ffffff"
     bordercolor="#666666"
     borderopacity="1.0"
     inkscape:showpageshadow="2"
     inkscape:pageopacity="0.0"
     inkscape:pagecheckerboard="0"
     inkscape:deskcolor="#d1d1d1"
     inkscape:document-units="mm"
     inkscape:zoom="0.74564394"
     inkscape:cx="223.29693"
     inkscape:cy="303.76429"
     inkscape:window-width="1920"
     inkscape:window-height="1017"
     inkscape:window-x="-8"
     inkscape:window-y="-8"
     inkscape:window-maximized="1"
     inkscape:current-layer="layer1" />
  <defs
     id="defs1" />
  <g
     inkscape:label="Calque 1"
     inkscape:groupmode="layer"
     id="layer1"
     transform="translate(-45.902899,-39.823585)">
    <path
       d="M 67.321911,93.790348 C 61.252485,87.722067 53.950261,80.404056 51.094745,77.528101 L 45.902899,72.299096 62.152601,56.06134 78.402309,39.823585 94.652604,56.062718 110.9029,72.301847 94.630063,88.562716 78.357232,104.82359 Z M 91.676722,85.632657 104.95105,72.367287 91.741873,59.122814 C 84.476831,51.838354 78.473846,45.866524 78.401913,45.852081 78.32998,45.837656 72.324626,51.807347 65.056688,59.118107 L 51.84225,72.410402 65.040301,85.654213 c 7.258927,7.284096 13.234963,13.243813 13.280074,13.243813 0.04513,0 6.055467,-5.969419 13.356347,-13.265369 z M 67.223305,83.597752 C 61.075074,77.433343 56.028231,72.340367 56.008107,72.280033 55.987988,72.219695 61.02105,67.124644 67.192701,60.957693 L 78.41389,49.745052 89.588924,60.986362 c 6.146274,6.182725 11.190416,11.287418 11.209216,11.343765 0.0188,0.05635 -5.01267,5.136421 -11.181029,11.289052 l -11.215198,11.1866 z M 84.66403,83.471291 c 1.164374,-0.359382 2.400697,-1.396349 2.916396,-2.44612 l 0.369059,-0.75128 v -2.744609 -2.744609 l -3.989054,-0.07534 c -2.721807,-0.0514 -4.092925,-0.03058 -4.316026,0.0655 -0.581009,0.250249 -0.784302,0.891148 -0.78453,2.473302 -3.61e-4,2.516149 -0.590316,3.021058 -3.226773,2.761592 l -1.024062,-0.100779 1.086954,-0.243042 c 1.233702,-0.275852 1.787869,-0.523988 1.982705,-0.88778 0.07406,-0.138296 0.134668,-0.98955 0.134668,-1.891675 0,-1.627351 -0.003,-1.643574 -0.381457,-2.067048 l -0.381456,-0.426822 -3.516267,-0.04194 c -4.555342,-0.05433 -4.156693,-0.322127 -4.156693,2.792311 v 2.316201 l 2.131718,2.066228 c 1.85613,1.799105 2.194299,2.072807 2.615776,2.117112 0.26623,0.02801 2.552492,0.06078 5.08058,0.07286 4.289471,0.0205 4.654101,0.004 5.458462,-0.244064 z M 74.116762,73.207596 c 0.750693,-0.490159 0.74659,-0.458792 0.767787,-5.863922 0.02106,-5.368383 -0.01048,-5.668805 -0.644257,-6.139106 -0.316191,-0.234635 -0.592001,-0.279873 -1.935162,-0.317389 -1.745545,-0.04875 -2.008251,0.03635 -2.47563,0.802357 -0.241119,0.395164 -0.254822,0.692211 -0.254471,5.51479 3.51e-4,4.773553 0.01602,5.120846 0.246873,5.470748 0.525323,0.796242 0.832661,0.895272 2.49834,0.804995 0.975811,-0.05289 1.606781,-0.148586 1.79652,-0.272473 z m 6.169175,0.164724 c 0.24494,-0.0858 0.609279,-0.361841 0.809641,-0.613429 l 0.364299,-0.457435 0.03139,-5.172055 c 0.02758,-4.547883 0.0063,-5.207829 -0.176413,-5.468521 C 80.864999,61.019083 80.59034,60.933567 78.823,60.885034 l -1.671526,-0.04589 -0.588912,0.588493 -0.588908,0.588489 0.03702,5.231278 c 0.03594,5.077204 0.04513,5.242139 0.311213,5.600109 0.150802,0.202852 0.415649,0.441478 0.588552,0.530269 0.404472,0.207718 2.777842,0.20389 3.375484,-0.0054 z m 6.730268,-0.0094 c 0.237382,-0.09912 0.559193,-0.3423 0.715136,-0.540411 0.279988,-0.355691 0.283537,-0.424832 0.283537,-5.522294 v -5.162097 l -0.467072,-0.440194 -0.467073,-0.44019 h -1.63204 c -2.913064,0 -2.796147,-0.263898 -2.796147,6.311339 0,5.558753 -0.03455,5.324242 0.850125,5.773284 0.517993,0.262923 2.899683,0.276864 3.513534,0.02054 z"
       style="fill:#922426;fill-opacity:1;stroke-width:0.494143"
       id="path1" />
  </g>
</svg>
