<?xml version="1.0" encoding="UTF-8" standalone="no"?>
<!-- Created with Inkscape (http://www.inkscape.org/) -->

<svg
   width="64.999992mm"
   height="65mm"
   viewBox="0 0 64.999992 65.000001"
   version="1.1"
   id="svg1"
   inkscape:version="1.4.2 (f4327f4, 2025-05-13)"
   sodipodi:docname="presence.svg"
   xmlns:inkscape="http://www.inkscape.org/namespaces/inkscape"
   xmlns:sodipodi="http://sodipodi.sourceforge.net/DTD/sodipodi-0.dtd"
   xmlns="http://www.w3.org/2000/svg"
   xmlns:svg="http://www.w3.org/2000/svg">
  <sodipodi:namedview
     id="namedview1"
     pagecolor="#ffffff"
     bordercolor="#666666"
     borderopacity="1.0"
     inkscape:showpageshadow="2"
     inkscape:pageopacity="0.0"
     inkscape:pagecheckerboard="0"
     inkscape:deskcolor="#d1d1d1"
     inkscape:document-units="mm"
     inkscape:zoom="0.74564394"
     inkscape:cx="250.11938"
     inkscape:cy="429.82982"
     inkscape:window-width="1920"
     inkscape:window-height="1017"
     inkscape:window-x="-8"
     inkscape:window-y="-8"
     inkscape:window-maximized="1"
     inkscape:current-layer="layer1" />
  <defs
     id="defs1" />
  <g
     inkscape:label="Calque 1"
     inkscape:groupmode="layer"
     id="layer1"
     transform="translate(-38.792764,-34.892666)">
    <path
       d="M 55.054395,83.63794 38.792764,67.383215 55.054529,51.137943 71.316291,34.892666 87.554528,51.114827 103.79276,67.336991 87.554399,83.614826 71.31603,99.892666 Z M 84.558351,54.123958 71.338062,40.916599 58.037159,54.11735 44.736253,67.318107 58.026145,80.60492 71.31603,93.891734 84.547333,80.611529 97.778641,67.331319 Z M 60.077611,78.469107 48.850358,67.252674 60.050538,56.063845 71.250722,44.875024 82.48347,56.096562 93.716223,67.318107 82.581434,78.437051 c -6.124132,6.115416 -11.16669,11.14809 -11.20568,11.183717 -0.039,0.0356 -5.123153,-4.982618 -11.298143,-11.151661 z m 12.221872,-0.904239 c 0.508597,-3.478592 0.947316,-6.347284 0.974927,-6.374867 0.0276,-0.02757 0.391766,0.20905 0.809232,0.525846 0.417471,0.316802 1.258644,0.922688 1.869278,1.346419 0.610634,0.423735 1.952357,1.403808 2.981618,2.17794 1.029255,0.774131 1.899693,1.407512 1.934304,1.407512 0.181033,0 -2.079996,-3.185088 -3.930149,-5.536357 -0.899549,-1.143189 -1.621594,-2.092242 -1.604543,-2.109 0.01703,-0.01676 2.617201,-0.422029 5.778125,-0.900589 7.287108,-1.103269 6.900851,-1.020597 5.747132,-1.230088 -4.881997,-0.886436 -10.606001,-1.837051 -11.061544,-1.837051 -0.202073,0 -0.367408,-0.05074 -0.367408,-0.112764 0,-0.06202 0.868724,-1.280413 1.930508,-2.707543 2.422671,-3.256297 3.576805,-4.878259 3.471209,-4.878259 -0.119379,0 -4.005172,2.710671 -6.022595,4.201271 -0.952114,0.703486 -1.760305,1.279063 -1.795977,1.279063 -0.03569,0 -0.06486,-0.400078 -0.06486,-0.889065 0,-0.982465 -0.214553,-2.732976 -0.69867,-5.700385 -0.175627,-1.076492 -0.455602,-2.984215 -0.622176,-4.239388 -0.232404,-1.751266 -0.326843,-2.191379 -0.405988,-1.892021 -0.133567,0.505221 -1.799814,11.861764 -1.799814,12.266887 0,0.169448 -0.04413,0.335335 -0.09807,0.368638 -0.05394,0.03329 -0.89152,-0.557102 -1.861284,-1.31201 -2.26715,-1.764852 -5.878458,-4.343022 -5.877243,-4.195862 4.93e-4,0.063 1.065456,1.576881 3.492531,4.964895 l 1.990839,2.779052 -1.86022,0.296873 c -5.86306,0.935688 -9.998669,1.614081 -10.284992,1.687119 -0.402409,0.10266 3.269363,0.721837 8.457425,1.4262 2.029458,0.275528 3.689505,0.531586 3.688996,0.569013 -4.94e-4,0.03743 -0.750194,1.095613 -1.665975,2.351526 -1.801937,2.471187 -3.688379,5.168181 -3.688379,5.273162 0,0.173073 7.05611,-5.091509 7.25498,-5.412961 0.163748,-0.264679 0.295296,-0.09192 0.379694,0.498627 0.274899,1.9235 1.785127,11.772807 1.855706,12.102406 0.04611,0.215297 0.102911,0.332731 0.126242,0.260965 0.0233,-0.07177 0.458544,-2.976607 0.967147,-6.455204 z"
       style="fill:#922426;fill-opacity:1;stroke-width:0.493419"
       id="path1" />
  </g>
</svg>
